<svg xmlns="http://www.w3.org/2000/svg" viewBox="0 0 188.63 191"><g id="b2476477-21f1-4078-b30d-f5da4fedeb6a" data-name="Capa 2"><g id="bc71472e-4ccb-4cb8-94f7-2a21fde76a66" data-name="safari-pinned-tab"><path d="M113.33,191H0V31.27H34.22v117H74.37a8.16,8.16,0,0,0-.32-1.2,133.38,133.38,0,0,0-10-19.86c-3.44,5.76-6.36,11.83-9.85,17.58H37c.15-1.17,25.45-49,26.92-50.83a11.29,11.29,0,0,1,.76,1.14c1.26,2.54,2.45,5.12,3.75,7.65,3.06,6,6.19,11.92,9.24,17.9,1.75,3.45,3.36,6.93,5.08,10.37q3.58,7.2,7.23,14.36c2.45,4.81,5,9.57,7.43,14.38,1.82,3.58,3.55,7.2,5.34,10.79s3.53,7.07,5.34,10.59c1.24,2.41,2.58,4.79,3.84,7.19C112.42,189.13,112.83,190,113.33,191ZM8,40v143.6H92c-1-2.88-13.2-27.06-14.21-28.08H26.89V40Z"/><path d="M118.85,188.89c-16.19-31.33-32.33-62.57-48.53-94a6.15,6.15,0,0,1,.91.86q2.64,3.67,5.26,7.37c3.15,4.45,6.29,8.92,9.47,13.38q6,8.42,12,16.84,8.55,12,17.08,24c.56.79,1.1,1.6,1.79,2.6a10,10,0,0,0,.79-1.24c1.56-3.54,3.07-7.11,4.63-10.65q5.72-12.92,11.46-25.83,4.44-9.93,8.94-19.85,4.63-10.26,9.3-20.49,6.21-13.78,12.41-27.56c3.51-7.74,7.08-15.49,10.56-23.28,2.58-5.77,5.05-11.58,7.56-17.38,1.6-3.7,3.16-7.42,4.78-11.11a23.85,23.85,0,0,1,1.4-2.4L188.4,0c-.16.15-.47.31-.47.43.1,1.66-.66,3.1-1.19,4.59-.83,2.32-1.72,4.62-2.58,6.94l-8.8,23.88Q168.16,55.4,160.94,75l-9.58,25.93-8.91,24.2q-5.4,14.64-10.81,29.23-4,10.91-8,21.8L119.24,188C119.13,188.31,119,188.59,118.85,188.89Z"/><path d="M45,158.61a19.44,19.44,0,0,1-2.63,6.1c-1.15,2-2.23,4.12-3.34,6.19l-2.1,3.9H19.39c1.34-3.66,7.75-15.23,9-16.19Z"/></g></g></svg>