<svg xmlns="http://www.w3.org/2000/svg" viewBox="0 0 542.75 453.34">
    <defs>
        <style>.cls-1{fill:#f5f5f5;}</style>
    </defs>
    <g id="Capa_2" data-name="Capa 2">
        <g id="Capa_1-2" data-name="Capa 1">
            <path class="cls-1" d="M367.9,453.34H104.65V82.3h79.48V354H277.4a17.94,17.94,0,0,0-.73-2.77c-6.74-15.73-13.75-31.32-23.26-46.13-8,13.38-14.77,27.46-22.87,40.82H190.68c.37-2.7,59.13-113.81,62.54-118.06a24.6,24.6,0,0,1,1.76,2.63c2.93,5.91,5.7,11.9,8.71,17.77,7.11,13.89,14.39,27.69,21.48,41.6,4.05,8,7.81,16.08,11.8,24.08q8.31,16.71,16.78,33.36c5.7,11.16,11.58,22.24,17.26,33.41,4.23,8.3,8.25,16.71,12.41,25.05s8.21,16.43,12.41,24.6c2.89,5.61,6,11.13,8.92,16.71C365.79,449,366.74,451,367.9,453.34ZM123.12,102.64V436.21H318.28c-2.37-6.68-30.65-62.85-33-65.22H167.12V102.64Z" />
            <path class="cls-1" d="M380.74,448.45C343.12,375.65,305.64,303.1,268,230.17a15.26,15.26,0,0,1,2.11,2q6.15,8.53,12.21,17.12c7.33,10.35,14.62,20.73,22,31.08q13.89,19.57,27.82,39.12,19.85,27.89,39.67,55.79c1.3,1.84,2.55,3.72,4.15,6.05a21.48,21.48,0,0,0,1.85-2.88c3.61-8.23,7.13-16.51,10.76-24.74q13.26-30,26.61-60,10.31-23.08,20.77-46.11,10.77-23.82,21.59-47.61,14.44-32,28.84-64c8.15-18,16.45-36,24.52-54.08,6-13.4,11.74-26.91,17.57-40.38,3.71-8.6,7.34-17.24,11.11-25.81a53,53,0,0,1,3.25-5.58l-.55-.48c-.37.35-1.09.71-1.07,1,.23,3.86-1.55,7.19-2.78,10.65-1.93,5.4-4,10.75-6,16.13L512,92.92q-16.74,45.42-33.49,90.84L456.26,244q-10.36,28.11-20.71,56.22-12.54,34-25.1,67.9-9.33,25.31-18.63,50.62-5.1,13.85-10.19,27.7C381.38,447.09,381,447.75,380.74,448.45Z" />
            <path class="cls-1" d="M195.27,0V71.13H86.88C81,82.53,87.8,96.56,97.08,104c-3.93,2.29-15.37-1.45-23.68-8.86-6.81-6.07-9.81-14.42-10.62-23.74H45V0Zm-79.7,54.74c0-4.54,0-8.88,0-13.22,0-2.68-.89-5-3.06-6.16,1-1.8,2.43-3.38,2.72-5.15a33.34,33.34,0,0,0,0-8.47,6,6,0,0,0-5.39-5.44C106,16,102,16.23,98,16.23V54.72h5.69V38.45h4.1l1.55,1.62c.78,5-.68,9.89,1.06,14.67Zm4.73.09c3.07,0,5.82.21,8.54,0,6.44-.58,9.21-2.87,9.38-8.71.21-7,.21-14,.18-21a17.09,17.09,0,0,0-.82-3.85,6,6,0,0,0-5.28-4.83,119.57,119.57,0,0,0-12-.1Zm44.52,0c3.18,0,6,.08,8.84,0,5.94-.2,9-3.25,9.28-9.22.14-3.5.07-7,.07-10.51s.09-7.19-.09-10.78c-.21-4.33-2.46-7.59-5.95-7.94-4-.39-8.05-.09-12.15-.09Zm-3.2.41c-2.17-13.26-4.27-26.15-6.35-38.93H147c-2.11,12.84-4.19,25.48-6.29,38.31,1.62,1.19,3.59,1.13,5.61-.44l1-6.84h6.81c.47,2.61.93,5.26,1.4,7.9ZM60.75,54.71h7.92c2-12.83,3.9-25.54,5.86-38.42H69c-1.21,9.18-2.4,18.26-3.59,27.33l-.77,0Q62.77,30,60.92,16.32h-6ZM91.83,37.4V31.57H83.65V21.24H93.88v-4.9H77.68v38.3H93.87V49.13H83.63V37.4Z" />
            <path class="cls-1" d="M32.38,16.37c2.12,13,4.21,25.82,6.33,38.87h-6.1c-2-2.1,0-5.25-2.35-7.8H24.37c-.29,2.18-.58,4.47-1,7.38l-5.94.84c2.16-13.43,4.22-26.28,6.31-39.29Zm-4.21,9.07-.74.14c-.7,5.11-1.39,10.23-2.12,15.55h5.18Z" />
            <path class="cls-1" d="M0,16.27H6.1V49.08H16V55.2H0Z" />
            <path class="cls-1" d="M209.08,378.11c-1,5.43-3.62,9.75-6.1,14.15-2.68,4.74-5.18,9.58-7.76,14.38-1.61,3-3.22,6-4.88,9.08H149.69c3.12-8.52,18-35.39,20.86-37.61Z" />
            <path class="cls-1" d="M107.82,32.6h-3.94V21.41c2.16-.33,4-.11,5.56,1.7v7.64Z" />
            <path class="cls-1" d="M126.15,21.09l5.44.73a21.58,21.58,0,0,1,.68,3.71c.08,6.52,0,13,.07,19.56a4.22,4.22,0,0,1-2,4h-4.17Z" />
            <path class="cls-1" d="M170.8,21.06l5.49.84a26.33,26.33,0,0,1,.52,3.52c.08,6.43.11,12.87.13,19.3,0,1.64-.11,3.26-2.07,4.37H170.8Z" />
            <path class="cls-1" d="M153.69,41.18h-5.56c.85-5.85,1.68-11.47,2.5-17.09l.51,0C152,29.68,152.81,35.31,153.69,41.18Z" />
        </g>
    </g>
</svg>