<?xml version="1.0" encoding="utf-8"?>
<!-- Generator: Adobe Illustrator 26.0.3, SVG Export Plug-In . SVG Version: 6.00 Build 0)  -->
<svg version="1.1" id="a50a2785-f2b7-4dbd-b549-d24f09c85299"
	 xmlns="http://www.w3.org/2000/svg" xmlns:xlink="http://www.w3.org/1999/xlink" x="0px" y="0px" viewBox="0 0 195.3 104.7"
	 style="enable-background:new 0 0 195.3 104.7;" xml:space="preserve">
<style type="text/css">
	.st0{fill:#F5F5F5;}
</style>
<path class="st0" d="M195.3,0v71.1H86.9C81,82.5,87.8,96.6,97.1,104c-3.9,2.3-15.4-1.4-23.7-8.9c-6.8-6.1-9.8-14.4-10.6-23.7H45V0
	H195.3z M115.6,54.7V41.5c0-2.7-0.9-5-3.1-6.2c1-1.8,2.4-3.4,2.7-5.1c0.4-2.8,0.4-5.7,0-8.5c-0.3-2.9-2.5-5.2-5.4-5.4
	C106,16,102,16.2,98,16.2v38.5h5.7V38.5h4.1l1.6,1.6c0.8,5-0.7,9.9,1.1,14.7L115.6,54.7z M120.3,54.8c3.1,0,5.8,0.2,8.5,0
	c6.4-0.6,9.2-2.9,9.4-8.7c0.2-7,0.2-14,0.2-21c-0.1-1.3-0.4-2.6-0.8-3.9c-0.5-2.6-2.6-4.6-5.3-4.8c-4-0.2-8-0.3-12-0.1L120.3,54.8z
	 M164.8,54.8c3.2,0,6,0.1,8.8,0c5.9-0.2,9-3.2,9.3-9.2c0.1-3.5,0.1-7,0.1-10.5s0.1-7.2-0.1-10.8c-0.2-4.3-2.5-7.6-5.9-7.9
	c-4-0.4-8.1-0.1-12.1-0.1L164.8,54.8z M161.6,55.2c-2.2-13.3-4.3-26.1-6.4-38.9H147c-2.1,12.8-4.2,25.5-6.3,38.3
	c1.6,1.2,3.6,1.1,5.6-0.4l1-6.8h6.8c0.5,2.6,0.9,5.3,1.4,7.9L161.6,55.2z M60.8,54.7h7.9c2-12.8,3.9-25.5,5.9-38.4H69
	c-1.2,9.2-2.4,18.3-3.6,27.3h-0.8c-1.2-9.1-2.5-18.2-3.7-27.3h-6L60.8,54.7z M91.8,37.4v-5.8h-8.2V21.2h10.2v-4.9H77.7v38.3h16.2
	v-5.5H83.6V37.4H91.8z"/>
<path class="st0" d="M32.4,16.4c2.1,13,4.2,25.8,6.3,38.9h-6.1c-2-2.1,0-5.2-2.4-7.8h-5.9c-0.3,2.2-0.6,4.5-1,7.4l-5.9,0.8
	c2.2-13.4,4.2-26.3,6.3-39.3L32.4,16.4z M28.2,25.4l-0.7,0.1c-0.7,5.1-1.4,10.2-2.1,15.6h5.2L28.2,25.4z"/>
<path class="st0" d="M0,16.3h6.1v32.8H16v6.1H0V16.3z"/>
<path class="st0" d="M107.8,32.6h-3.9V21.4c2.2-0.3,4-0.1,5.6,1.7v7.6L107.8,32.6z"/>
<path class="st0" d="M126.2,21.1l5.4,0.7c0.3,1.2,0.6,2.5,0.7,3.7c0.1,6.5,0,13,0.1,19.6c0.2,1.6-0.6,3.2-2,4h-4.2L126.2,21.1z"/>
<path class="st0" d="M170.8,21.1l5.5,0.8c0.3,1.2,0.4,2.3,0.5,3.5c0.1,6.4,0.1,12.9,0.1,19.3c0,1.6-0.1,3.3-2.1,4.4h-4.1V21.1z"/>
<path class="st0" d="M153.7,41.2h-5.6c0.9-5.8,1.7-11.5,2.5-17.1h0.5C152,29.7,152.8,35.3,153.7,41.2z"/>
</svg>
