<?xml version="1.0" encoding="utf-8"?>
<!-- Generator: Adobe Illustrator 26.0.3, SVG Export Plug-In . SVG Version: 6.00 Build 0)  -->
<svg version="1.1" id="Capa_1" xmlns="http://www.w3.org/2000/svg" xmlns:xlink="http://www.w3.org/1999/xlink" x="0px" y="0px"
	 viewBox="0 0 438.2 443.7" style="enable-background:new 0 0 438.2 443.7;" xml:space="preserve">
<style type="text/css">
	.st0{fill:#F5F5F5;}
</style>
<path class="st0" d="M263.2,443.7H0v-371h79.5v271.7h93.3c-0.2-0.9-0.4-1.9-0.7-2.8c-6.7-15.7-13.8-31.3-23.3-46.1
	c-8,13.4-14.8,27.5-22.9,40.8H86c0.4-2.7,59.1-113.8,62.5-118.1c0.6,0.8,1.2,1.7,1.8,2.6c2.9,5.9,5.7,11.9,8.7,17.8
	c7.1,13.9,14.4,27.7,21.5,41.6c4,8,7.8,16.1,11.8,24.1c5.5,11.1,11.1,22.3,16.8,33.4c5.7,11.2,11.6,22.2,17.3,33.4
	c4.2,8.3,8.2,16.7,12.4,25c4.2,8.3,8.2,16.4,12.4,24.6c2.9,5.6,6,11.1,8.9,16.7C261.1,439.3,262.1,441.3,263.2,443.7z M18.5,93
	v333.6h195.2c-2.4-6.7-30.6-62.8-33-65.2H62.5V93H18.5z"/>
<path class="st0" d="M276.1,438.8C238.5,366,201,293.4,163.4,220.5c0.8,0.6,1.5,1.3,2.1,2c4.1,5.7,8.2,11.4,12.2,17.1
	c7.3,10.3,14.6,20.7,22,31.1c9.3,13,18.5,26.1,27.8,39.1c13.2,18.6,26.5,37.2,39.7,55.8c1.3,1.8,2.5,3.7,4.1,6
	c0.7-0.9,1.3-1.9,1.9-2.9c3.6-8.2,7.1-16.5,10.8-24.7c8.8-20,17.7-40,26.6-60c6.9-15.4,13.8-30.8,20.8-46.1
	c7.2-15.9,14.4-31.8,21.6-47.6c9.6-21.3,19.2-42.7,28.8-64c8.1-18,16.5-36,24.5-54.1c6-13.4,11.7-26.9,17.6-40.4
	c3.7-8.6,7.3-17.2,11.1-25.8c1-1.9,2.1-3.8,3.2-5.6L437.6,0c-0.4,0.4-1.1,0.7-1.1,1c0.2,3.9-1.5,7.2-2.8,10.6
	c-1.9,5.4-4,10.8-6,16.1l-20.4,55.5c-11.2,30.3-22.3,60.6-33.5,90.8l-22.2,60.2c-6.9,18.7-13.8,37.5-20.7,56.2
	c-8.4,22.7-16.7,45.3-25.1,67.9c-6.2,16.9-12.4,33.7-18.6,50.6c-3.4,9.2-6.8,18.5-10.2,27.7C276.7,437.4,276.4,438.1,276.1,438.8z"
	/>
<path class="st0" d="M104.4,368.5c-1,5.4-3.6,9.8-6.1,14.1c-2.7,4.7-5.2,9.6-7.8,14.4c-1.6,3-3.2,6-4.9,9.1H45
	c3.1-8.5,18-35.4,20.9-37.6H104.4z"/>
</svg>
