<svg id="a50a2785-f2b7-4dbd-b549-d24f09c85299" data-name="Capa 1" xmlns="http://www.w3.org/2000/svg" viewBox="0 0 195.27 104.67"><defs><style>.e0c0fc32-34e1-451f-a1d2-3f226d99d041{fill:#f9f9f9;}</style></defs><path class="e0c0fc32-34e1-451f-a1d2-3f226d99d041" d="M195.27,0V71.13H86.88C81,82.53,87.8,96.56,97.08,104c-3.93,2.29-15.37-1.45-23.68-8.86-6.81-6.07-9.81-14.42-10.62-23.74H45V0Zm-79.7,54.74V41.52c0-2.68-.89-5-3.06-6.16,1-1.8,2.43-3.38,2.72-5.15a33.35,33.35,0,0,0,0-8.47,6,6,0,0,0-5.39-5.44C106,16,102,16.23,98,16.23V54.72h5.69V38.45h4.1l1.55,1.62c.78,5-.68,9.89,1.06,14.67Zm4.73.09c3.07,0,5.82.21,8.54,0,6.44-.58,9.21-2.87,9.38-8.71.21-7,.21-14,.18-21a16.94,16.94,0,0,0-.82-3.85,6,6,0,0,0-5.28-4.83q-6-.35-12-.1Zm44.52,0c3.18,0,6,.08,8.84,0,5.94-.2,9-3.25,9.28-9.22.14-3.5.07-7,.07-10.51s.09-7.19-.09-10.78c-.21-4.33-2.46-7.59-5.95-7.94-4-.39-8.05-.09-12.15-.09Zm-3.2.41c-2.17-13.26-4.27-26.15-6.35-38.93H147c-2.11,12.84-4.19,25.48-6.29,38.31,1.62,1.19,3.59,1.13,5.61-.44l1-6.84h6.81c.47,2.61.93,5.26,1.4,7.9ZM60.75,54.71h7.92c2-12.83,3.9-25.54,5.86-38.42H69c-1.21,9.18-2.4,18.26-3.59,27.33h-.77Q62.77,30,60.92,16.32h-6ZM91.83,37.4V31.57H83.65V21.24H93.88v-4.9H77.68v38.3H93.87V49.13H83.63V37.4Z"/><path class="e0c0fc32-34e1-451f-a1d2-3f226d99d041" d="M32.38,16.37c2.12,13,4.21,25.82,6.33,38.87h-6.1c-2-2.1,0-5.25-2.35-7.8H24.37c-.29,2.18-.58,4.47-1,7.38l-5.94.84c2.16-13.43,4.22-26.28,6.31-39.29Zm-4.21,9.07-.74.14c-.7,5.11-1.39,10.23-2.12,15.55h5.18Z"/><path class="e0c0fc32-34e1-451f-a1d2-3f226d99d041" d="M0,16.27H6.1V49.08H16V55.2H0Z"/><path class="e0c0fc32-34e1-451f-a1d2-3f226d99d041" d="M107.82,32.6h-3.94V21.41c2.16-.33,4-.11,5.56,1.7v7.64Z"/><path class="e0c0fc32-34e1-451f-a1d2-3f226d99d041" d="M126.15,21.09l5.44.73a22.22,22.22,0,0,1,.68,3.71c.08,6.52,0,13,.07,19.56a4.21,4.21,0,0,1-2,4h-4.17Z"/><path class="e0c0fc32-34e1-451f-a1d2-3f226d99d041" d="M170.8,21.06l5.49.84a26.21,26.21,0,0,1,.52,3.52c.08,6.43.11,12.87.13,19.3,0,1.64-.11,3.26-2.07,4.37H170.8Z"/><path class="e0c0fc32-34e1-451f-a1d2-3f226d99d041" d="M153.69,41.18h-5.56c.85-5.85,1.68-11.47,2.5-17.09h.51C152,29.68,152.81,35.31,153.69,41.18Z"/></svg>